<svg width="19" height="19" viewBox="0 0 19 19" fill="none" >
    <path d="M14.35 11.2961C13.0294 11.2961 11.9551 12.3705 11.9551 13.6911C11.9551 15.0117 13.0294 16.0861 14.35 16.0861C15.6709 16.0861 16.745 15.0117 16.745 13.6911C16.745 12.3705 15.6707 11.2961 14.35 11.2961ZM14.35 14.8886C13.6896 14.8886 13.1526 14.3515 13.1526 13.6911C13.1526 13.0307 13.6896 12.4936 14.35 12.4936C15.0104 12.4936 15.5475 13.0307 15.5475 13.6911C15.5475 14.3515 15.0104 14.8886 14.35 14.8886Z" />
    <path d="M6.16743 11.2961C4.84681 11.2961 3.77246 12.3705 3.77246 13.6911C3.77246 15.0117 4.84681 16.0861 6.16743 16.0861C7.48804 16.0861 8.56239 15.0117 8.56239 13.6911C8.56239 12.3705 7.48804 11.2961 6.16743 11.2961ZM6.16743 14.8886C5.50703 14.8886 4.96994 14.3515 4.96994 13.6911C4.96994 13.0307 5.50703 12.4936 6.16743 12.4936C6.82764 12.4936 7.36491 13.0307 7.36491 13.6911C7.36491 14.3515 6.82782 14.8886 6.16743 14.8886Z" />
    <path d="M15.9629 4.44105C15.8611 4.23887 15.6541 4.11133 15.4278 4.11133H12.2744V5.30881H15.0585L16.6889 8.55158L17.7591 8.01349L15.9629 4.44105Z" />
    <path d="M12.5544 13.1125H8.02393V14.31H12.5544V13.1125Z" />
    <path d="M4.37061 13.1125H2.29501C1.96429 13.1125 1.69629 13.3806 1.69629 13.7113C1.69629 14.042 1.96433 14.31 2.29501 14.31H4.37065C4.70137 14.31 4.96937 14.042 4.96937 13.7113C4.96937 13.3806 4.70133 13.1125 4.37061 13.1125Z" />
    <path d="M18.8741 9.45204L17.6964 7.93524C17.5833 7.78914 17.4086 7.70371 17.2236 7.70371H12.8727V3.51254C12.8727 3.18182 12.6047 2.91382 12.274 2.91382H2.29501C1.96429 2.91382 1.69629 3.18186 1.69629 3.51254C1.69629 3.84322 1.96433 4.11126 2.29501 4.11126H11.6753V8.30243C11.6753 8.63315 11.9433 8.90116 12.274 8.90116H16.9304L17.8023 10.0244V13.1123H16.1458C15.8151 13.1123 15.5471 13.3803 15.5471 13.711C15.5471 14.0417 15.8151 14.3097 16.1458 14.3097H18.4011C18.7318 14.3097 18.9998 14.0417 18.9998 13.711V9.81928C18.9998 9.68635 18.9555 9.55703 18.8741 9.45204Z" />
    <path d="M4.33048 10.0789H1.57626C1.24554 10.0789 0.977539 10.3469 0.977539 10.6776C0.977539 11.0083 1.24558 11.2763 1.57626 11.2763H4.33045C4.66116 11.2763 4.92917 11.0083 4.92917 10.6776C4.92921 10.3469 4.66116 10.0789 4.33048 10.0789Z" />
    <path d="M5.70798 7.72363H0.598723C0.268041 7.72363 0 7.99167 0 8.32239C0 8.65311 0.268041 8.92111 0.598723 8.92111H5.70798C6.0387 8.92111 6.3067 8.65307 6.3067 8.32239C6.3067 7.99171 6.0387 7.72363 5.70798 7.72363Z" />
    <path d="M6.68552 5.36865H1.57626C1.24554 5.36865 0.977539 5.63669 0.977539 5.96737C0.977539 6.29809 1.24558 6.5661 1.57626 6.5661H6.68552C7.01624 6.5661 7.28424 6.29806 7.28424 5.96737C7.28428 5.63669 7.01624 5.36865 6.68552 5.36865Z" />
</svg>
