<svg  viewBox="0 0 20 21"  >
    <path fill-rule="evenodd" clip-rule="evenodd" d="M0.878029 0.51111L0.776581 0.5005C0.407399 0.487004 0.0758636 0.748083 0.0111097 1.12222L0.000499955 1.22366C-0.0129962 1.59285 0.248083 1.92438 0.622217 1.98914L2.13122 2.25012L3.04575 13.1459L3.06468 13.3096C3.24868 14.5521 4.31732 15.4861 5.59012 15.4861H16.5021L16.6665 15.4809C17.8628 15.4045 18.8547 14.4998 19.0293 13.2979L19.9784 6.73954L19.9948 6.58889C20.0821 5.38982 19.1322 4.34912 17.9091 4.34912H3.81222L3.57749 1.54739L3.5598 1.43654C3.49136 1.14822 3.25698 0.922851 2.95803 0.87111L0.878029 0.51111ZM5.47418 13.9798C4.97892 13.9256 4.58283 13.5279 4.54053 13.0208L3.93822 5.84912H17.9091L17.9973 5.85561C18.313 5.90255 18.5411 6.19782 18.4938 6.52477L17.5449 13.0827L17.521 13.2C17.4007 13.6585 16.9853 13.9861 16.5021 13.9861H5.59012L5.47418 13.9798ZM3.90852 18.5854C3.90852 17.7493 4.5862 17.0704 5.42252 17.0704C6.25874 17.0704 6.93752 17.7492 6.93752 18.5854C6.93752 19.4217 6.25862 20.0994 5.42252 20.0994C4.58631 20.0994 3.90852 19.4216 3.90852 18.5854ZM15.1599 18.5854C15.1599 17.7492 15.8387 17.0704 16.6749 17.0704C17.5111 17.0704 18.1899 17.7492 18.1899 18.5854C18.1899 19.4217 17.511 20.0994 16.6749 20.0994C15.8388 20.0994 15.1599 19.4217 15.1599 18.5854ZM15.6486 8.79512C15.6486 8.38091 15.3128 8.04512 14.8986 8.04512H12.1256L12.0239 8.05197C11.6578 8.10163 11.3756 8.41543 11.3756 8.79512C11.3756 9.20934 11.7114 9.54512 12.1256 9.54512H14.8986L15.0004 9.53828C15.3665 9.48861 15.6486 9.17482 15.6486 8.79512Z" />
</svg>
