<svg  viewBox="0 0 40 40" fill="none" >
    <rect x="0.5" y="0.5" width="39" height="39" rx="14.5" fill="white"/>
    <rect x="12" y="12" width="16" height="16" rx="4" fill="white"/>
    <path d="M25 20.0943C25 20.566 24.6226 20.9434 24.1509 20.9434H20.7547V24.1509C20.7547 24.6226 20.3774 25 19.9057 25C19.434 25 19.0566 24.6226 19.0566 24.1509V20.9434H15.8491C15.3774 20.9434 15 20.566 15 20.0943C15 19.6226 15.3774 19.2453 15.8491 19.2453H19.0566V15.8491C19.0566 15.3774 19.434 15 19.9057 15C20.3774 15 20.7547 15.3774 20.7547 15.8491V19.2453H24.1509C24.6226 19.2453 25 19.6226 25 20.0943Z" fill="#D16837"/>
    <rect x="0.5" y="0.5" width="39" height="39" rx="14.5" stroke="#D16837"/>
</svg>
