<svg  viewBox="0 0 20 21" fill="none" >
    <path fill-rule="evenodd" clip-rule="evenodd" d="M7.86494 1.88765C8.9913 0.756177 10.7937 0.706363 11.9515 1.71645L12.1338 1.88645L12.8525 2.6052C13.0994 2.85092 13.4233 3.00242 13.7677 3.03645L13.9165 3.04378H14.9445C16.5483 3.04378 17.8597 4.29795 17.9514 5.87883L17.9565 6.05578V7.08278C17.9565 7.43258 18.0771 7.76886 18.2947 8.03624L18.3938 8.14645L19.1126 8.86525C20.2441 9.99165 20.2947 11.7929 19.258 12.98L19.1228 13.1251L18.3944 13.8535C18.1495 14.099 17.9979 14.4231 17.9638 14.7672L17.9565 14.9158V15.9448C17.9565 17.5485 16.7024 18.8591 15.1214 18.9507L14.9445 18.9558H13.9165C13.5679 18.9558 13.2312 19.0769 12.9637 19.2951L12.8534 19.3945L12.1356 20.1113C11.0104 21.2442 9.20781 21.2944 8.02028 20.2574L7.86614 20.1131L7.14903 19.396C6.90063 19.1494 6.5762 18.9973 6.23269 18.9631L6.08447 18.9558H5.05547C3.45234 18.9558 2.14119 17.7023 2.04958 16.1217L2.04447 15.9448V14.9158C2.04447 14.5678 1.92317 14.2308 1.70509 13.9637L1.60577 13.8537L0.888643 13.1356C-0.243932 12.0094 -0.29417 10.2068 0.74285 9.02044L0.878141 8.87545L1.60426 8.14834C1.85121 7.89963 2.00303 7.57581 2.03713 7.23146L2.04447 7.08278V6.05578L2.04958 5.87885C2.1378 4.35668 3.35697 3.13715 4.8786 3.0489L5.05547 3.04378H6.08447C6.43295 3.04378 6.76972 2.9229 7.03676 2.70572L7.14677 2.60682L7.86494 1.88765ZM11.1052 2.97734L11.0653 2.94031C10.5111 2.38855 9.63521 2.35624 9.04189 2.84256L8.92717 2.94674L8.20591 3.66899C7.68867 4.18258 7.00455 4.48966 6.2823 4.53727L6.08447 4.54378H5.05547C4.26791 4.54378 3.62019 5.14793 3.55065 5.91821L3.54447 6.05578V7.08278C3.54447 7.81195 3.27986 8.5131 2.80257 9.06116L2.66717 9.20674L1.94 9.93491C1.38819 10.4892 1.35606 11.3649 1.84371 11.9589L1.94817 12.0738L2.66743 12.7941C3.18183 13.3097 3.49012 13.995 3.53793 14.7178L3.54447 14.9158V15.9448C3.54447 16.7328 4.14817 17.3801 4.91799 17.4496L5.05547 17.4558H6.08447C6.81226 17.4558 7.51401 17.7207 8.0622 18.198L8.2078 18.3335L8.93111 19.0568C9.48933 19.6119 10.3652 19.6442 10.9587 19.1565L11.0735 19.0521L11.7944 18.3322C12.3111 17.8179 12.9955 17.5101 13.7185 17.4623L13.9165 17.4558H14.9445C15.7332 17.4558 16.3808 16.8524 16.4503 16.0823L16.4565 15.9448V14.9158C16.4565 14.1869 16.7213 13.4839 17.1979 12.9383L17.3331 12.7935L18.0606 12.066C18.6125 11.511 18.6444 10.6358 18.1575 10.0419L18.0531 9.92711L17.3313 9.20523C16.8174 8.68765 16.5105 8.00422 16.463 7.28094L16.4565 7.08278V6.05578C16.4565 5.26737 15.8524 4.61951 15.0821 4.54996L14.9445 4.54378H13.9165C13.1873 4.54378 12.4853 4.27939 11.9384 3.80243L11.7931 3.66711L11.1052 2.97734ZM12.0369 14.1024C12.1769 14.2424 12.3669 14.3224 12.5669 14.3224C12.7669 14.3224 12.9569 14.2424 13.0969 14.1024C13.1669 14.0324 13.2269 13.9424 13.2669 13.8524C13.2969 13.7624 13.3169 13.6734 13.3169 13.5724C13.3169 13.4724 13.2969 13.3724 13.2669 13.2824C13.2269 13.1924 13.1669 13.1124 13.0969 13.0424C12.8169 12.7624 12.3169 12.7624 12.0369 13.0424C11.9669 13.1124 11.9169 13.1924 11.8769 13.2824C11.8369 13.3724 11.8169 13.4724 11.8169 13.5724C11.8169 13.6734 11.8369 13.7624 11.8769 13.8524C11.9169 13.9424 11.9669 14.0324 12.0369 14.1024ZM7.42677 9.18278C7.32677 9.18278 7.23677 9.16178 7.14677 9.12178C7.05677 9.08178 6.96677 9.03278 6.89677 8.96278C6.82677 8.88278 6.77677 8.80278 6.73677 8.71278C6.69677 8.62178 6.67677 8.53278 6.67677 8.43278C6.67677 8.33178 6.69677 8.23278 6.73677 8.14278C6.77677 8.05278 6.82677 7.96278 6.89677 7.90278C7.18677 7.62178 7.67677 7.62178 7.95677 7.90278C8.09677 8.04178 8.17677 8.23278 8.17677 8.43278C8.17677 8.53278 8.16677 8.62178 8.12677 8.71278C8.08677 8.80278 8.02677 8.88278 7.95677 8.96278C7.88677 9.03278 7.80677 9.08178 7.71677 9.12178C7.62677 9.16178 7.52677 9.18278 7.42677 9.18278ZM13.1005 7.89915C12.8076 7.60626 12.3327 7.60626 12.0398 7.89915L6.89984 13.0392L6.82722 13.1233C6.60937 13.4169 6.63357 13.8335 6.89984 14.0998C7.19273 14.3927 7.66761 14.3927 7.9605 14.0998L13.1005 8.95981L13.1731 8.87569C13.391 8.58208 13.3668 8.16542 13.1005 7.89915Z" />
</svg>
