<svg viewBox="0 0 20 20" fill="none" >
    <path d="M9.69398 13.4071C9.12215 13.4071 8.65918 13.8837 8.65918 14.4555C8.65918 15.0138 9.10851 15.504 9.69398 15.504C10.2794 15.504 10.7424 15.0138 10.7424 14.4555C10.7424 13.8837 10.2659 13.4071 9.69398 13.4071Z" />
    <path d="M9.86984 5.46887C8.03168 5.46887 7.1875 6.55813 7.1875 7.2934C7.1875 7.82445 7.6368 8.06953 8.00445 8.06953C8.73969 8.06953 8.44016 7.0211 9.82898 7.0211C10.5098 7.0211 11.0545 7.32067 11.0545 7.94699C11.0545 8.6823 10.292 9.10437 9.84262 9.48562C9.44777 9.82601 8.93035 10.3843 8.93035 11.5553C8.93035 12.2633 9.12094 12.4675 9.67922 12.4675C10.3464 12.4675 10.4825 12.168 10.4825 11.9093C10.4825 11.2012 10.4962 10.7928 11.2451 10.2073C11.6127 9.92136 12.7701 8.99547 12.7701 7.71555C12.7701 6.43563 11.6127 5.46887 9.86984 5.46887Z" />
    <path d="M10 0C4.47328 0 0 4.47254 0 10V19.2188C0 19.6502 0.349766 20 0.78125 20H10C15.5267 20 20 15.5275 20 10C20 4.47328 15.5275 0 10 0ZM10 18.4375H1.5625V10C1.5625 5.33684 5.33621 1.5625 10 1.5625C14.6632 1.5625 18.4375 5.33621 18.4375 10C18.4375 14.6632 14.6638 18.4375 10 18.4375Z" />
</svg>
