<svg  viewBox="0 0 22 22" fill="none" >
    <path d="M19.6367 3.4375H18.9922V1.93359C18.9922 0.86741 18.1248 0 17.0586 0C15.9924 0 15.125 0.86741 15.125 1.93359V2.46146C15.125 3.12937 14.6765 3.72402 14.0342 3.90749L13.4062 4.08693V4.08203C13.4062 3.72608 13.1177 3.4375 12.7617 3.4375H10.1836C9.82764 3.4375 9.53906 3.72608 9.53906 4.08203V6.96094H1.93359C0.86741 6.96094 0 7.82835 0 8.89453V21.3555C0 21.5932 0.13084 21.8116 0.340398 21.9237C0.435703 21.9748 0.540203 22 0.644488 22C0.769527 22 0.894223 21.9636 1.00203 21.8917L3.41782 20.2812H15.6836C16.7498 20.2812 17.6172 19.4138 17.6172 18.3477V11.6016H19.6367C20.9398 11.6016 22 10.5414 22 9.23828V5.80078C22 4.49767 20.9398 3.4375 19.6367 3.4375ZM10.8281 4.72656H12.1172V10.3125H10.8281V4.72656ZM16.3281 18.3477C16.3281 18.7031 16.039 18.9922 15.6836 18.9922H3.22266C3.09543 18.9922 2.97103 19.0299 2.86516 19.1005L1.28906 20.1512V8.89453C1.28906 8.53914 1.5782 8.25 1.93359 8.25H9.53906V10.957C9.53906 11.313 9.82764 11.6016 10.1836 11.6016H12.7617C13.0928 11.6016 13.3653 11.3517 13.4018 11.0304C13.976 11.3966 14.6511 11.6016 15.3532 11.6016H16.3281V18.3477ZM20.7109 9.23828C20.7109 9.83061 20.229 10.3125 19.6367 10.3125H15.3532C14.5695 10.3125 13.8377 9.91714 13.4062 9.27068V5.4276L14.3883 5.14701C15.5811 4.80623 16.4141 3.70189 16.4141 2.46146V1.93359C16.4141 1.5782 16.7032 1.28906 17.0586 1.28906C17.414 1.28906 17.7031 1.5782 17.7031 1.93359V4.08203C17.7031 4.43798 17.9917 4.72656 18.3477 4.72656H19.6367C20.229 4.72656 20.7109 5.20846 20.7109 5.80078V9.23828Z" />
    <path d="M3.22266 12.1172H7.51953C7.87548 12.1172 8.16406 11.8286 8.16406 11.4727C8.16406 11.1167 7.87548 10.8281 7.51953 10.8281H3.22266C2.8667 10.8281 2.57812 11.1167 2.57812 11.4727C2.57812 11.8286 2.8667 12.1172 3.22266 12.1172Z" />
    <path d="M14.3945 13.4062H3.22266C2.8667 13.4062 2.57812 13.6948 2.57812 14.0508C2.57812 14.4067 2.8667 14.6953 3.22266 14.6953H14.3945C14.7505 14.6953 15.0391 14.4067 15.0391 14.0508C15.0391 13.6948 14.7505 13.4062 14.3945 13.4062Z" />
    <path d="M14.3945 15.9844H3.22266C2.8667 15.9844 2.57812 16.273 2.57812 16.6289C2.57812 16.9849 2.8667 17.2734 3.22266 17.2734H14.3945C14.7505 17.2734 15.0391 16.9849 15.0391 16.6289C15.0391 16.273 14.7505 15.9844 14.3945 15.9844Z" />
</svg>
