<svg width="20" height="20" viewBox="0 0 20 20" fill="none" >
    <path d="M10 0C9.67641 0 9.41406 0.262344 9.41406 0.585938C9.41406 0.909531 9.67641 1.17188 10 1.17188C14.8679 1.17188 18.8281 5.13215 18.8281 10C18.8281 14.8679 14.8679 18.8281 10 18.8281C5.13215 18.8281 1.17188 14.8679 1.17188 10C1.17188 7.6423 2.16289 5.36594 3.86785 3.70953V4.72656C3.86785 5.05016 4.1302 5.3125 4.45379 5.3125C4.77738 5.3125 5.03906 5.05016 5.03906 4.72656V2.38281C5.03906 2.05922 4.77738 1.79688 4.45379 1.79688H2.08984C1.76625 1.79688 1.50391 2.05922 1.50391 2.38281C1.50391 2.70641 1.76625 2.96484 2.08984 2.96484H2.94969C1.055 4.85633 0 7.3859 0 10C0 15.4977 4.50035 20 10 20C15.4977 20 20 15.4996 20 10C20 4.50234 15.4996 0 10 0Z" />
    <path d="M10 3.55469C6.44629 3.55469 3.55469 6.44723 3.55469 10C3.55469 13.5539 6.44746 16.4453 10 16.4453C13.5537 16.4453 16.4453 13.5528 16.4453 10C16.4453 6.44605 13.5525 3.55469 10 3.55469ZM14.1183 13.2897L13.7289 12.9002C13.5001 12.6714 13.1291 12.6714 12.9003 12.9002C12.6714 13.1291 12.6714 13.5 12.9003 13.7289L13.2897 14.1183C12.5309 14.7256 11.6016 15.1279 10.5859 15.2407V14.6875C10.5859 14.3639 10.3236 14.1016 10 14.1016C9.67641 14.1016 9.41406 14.3639 9.41406 14.6875V15.2407C8.39844 15.1279 7.46906 14.7256 6.71031 14.1183L7.09977 13.7289C7.32859 13.5 7.32859 13.1291 7.09977 12.9002C6.87098 12.6714 6.49996 12.6714 6.27113 12.9002L5.88168 13.2897C5.27437 12.5309 4.87207 11.6016 4.7593 10.5859H5.3125C5.63609 10.5859 5.89844 10.3236 5.89844 10C5.89844 9.67641 5.63609 9.41406 5.3125 9.41406H4.7593C4.87211 8.39844 5.27437 7.46906 5.88168 6.71031L6.27113 7.09977C6.49992 7.32859 6.87098 7.32859 7.09977 7.09977C7.32859 6.87094 7.32859 6.49996 7.09977 6.27113L6.71031 5.88168C7.46906 5.27437 8.39844 4.87211 9.41406 4.7593V5.3125C9.41406 5.63609 9.67641 5.89844 10 5.89844C10.3236 5.89844 10.5859 5.63609 10.5859 5.3125V4.7593C11.6016 4.87211 12.5309 5.27437 13.2897 5.88168L12.9002 6.27113C12.6714 6.49996 12.6714 6.87094 12.9002 7.09977C13.129 7.32859 13.5001 7.32859 13.7289 7.09977L14.1183 6.71031C14.7256 7.46906 15.1279 8.39844 15.2407 9.41406H14.6875C14.3639 9.41406 14.1016 9.67641 14.1016 10C14.1016 10.3236 14.3639 10.582 14.6875 10.582H15.2407C15.1279 11.5977 14.7256 12.5309 14.1183 13.2897Z" />
    <path d="M11.5862 10.7575L10.5859 9.75731V7.65625C10.5859 7.33266 10.3236 7.07031 10 7.07031C9.67641 7.07031 9.41406 7.33266 9.41406 7.65625V10C9.41406 10.1554 9.47582 10.3044 9.5857 10.4143L10.7576 11.5862C10.9864 11.815 11.3574 11.815 11.5862 11.5862C11.815 11.3573 11.815 10.9864 11.5862 10.7575Z" />
</svg>
