<svg width="18" height="20" viewBox="0 0 18 20" fill="none" >
    <path fill-rule="evenodd" clip-rule="evenodd" d="M9.0288 4.99595e-05C4.41977 -0.0156082 0.655096 3.65135 0.504628 8.24135L0.5 8.52625C0.576609 10.7761 1.34207 12.9207 2.69028 14.6876L3.00692 15.1008C4.2938 16.7371 5.82311 18.1733 7.54027 19.3571L7.95372 19.6354L8.01404 19.6828C8.6026 20.1057 9.39726 20.1057 9.98581 19.6828L10.036 19.6415C11.3986 18.7579 12.655 17.7196 13.7805 16.5473C16.0686 14.1252 17.4477 11.4112 17.4998 8.65498L17.4999 8.55264C17.5155 3.93192 13.8598 0.15567 9.28396 0.00469042L9.0288 4.99595e-05ZM9.02366 1.51747C12.8022 1.53038 15.87 4.54942 15.9839 8.30911L15.9871 8.64061C15.9434 10.9514 14.7334 13.3324 12.6866 15.4991C11.6429 16.5862 10.4727 17.5526 9.20356 18.3745L9.11897 18.438C9.05062 18.4974 8.94923 18.4974 8.88088 18.438L8.79867 18.376C6.90797 17.1416 5.24857 15.583 3.89636 13.7717C2.80718 12.3442 2.16175 10.6374 2.03184 8.85689L2.01275 8.49986C2.02559 4.71221 5.03532 1.63498 8.78345 1.52071L9.02366 1.51747ZM8.99993 5.40129C7.21153 5.40129 5.76176 6.85554 5.76176 8.64946C5.76176 10.4434 7.21153 11.8976 8.99993 11.8976C10.7883 11.8976 12.2381 10.4434 12.2381 8.64946C12.2381 6.85554 10.7883 5.40129 8.99993 5.40129ZM8.99993 6.91871C9.95285 6.91871 10.7253 7.69359 10.7253 8.64946C10.7253 9.60532 9.95285 10.3802 8.99993 10.3802C8.04701 10.3802 7.27451 9.60532 7.27451 8.64946C7.27451 7.69359 8.04701 6.91871 8.99993 6.91871Z" />
</svg>
