<svg width="21" height="21" viewBox="0 0 21 21" fill="none" >
    <path fill-rule="evenodd" clip-rule="evenodd" d="M9.33097 0.0214844C11.7102 0.0214844 13.6521 1.89542 13.7611 4.24772L13.766 4.45648V5.38948C13.766 5.8037 13.4302 6.13948 13.016 6.13948C12.6363 6.13948 12.3225 5.85733 12.2728 5.49125L12.266 5.38948V4.45648C12.266 2.89358 11.044 1.61575 9.50341 1.52647L9.33097 1.52148H4.45597C2.89392 1.52148 1.61623 2.74362 1.52696 4.28406L1.52197 4.45648V15.5865C1.52197 17.1493 2.74388 18.4272 4.28363 18.5165L4.45597 18.5215H9.34097C10.8983 18.5215 12.172 17.3039 12.261 15.7693L12.266 15.5975V14.6545C12.266 14.2403 12.6018 13.9045 13.016 13.9045C13.3957 13.9045 13.7095 14.1866 13.7591 14.5527L13.766 14.6545V15.5975C13.766 17.9687 11.8992 19.9046 9.55532 20.0164L9.34097 20.0215H4.45597C2.07753 20.0215 0.135813 18.1474 0.0267998 15.7952L0.0219727 15.5865V4.45648C0.0219727 2.07743 1.89573 0.135347 4.24728 0.0263125L4.45597 0.0214844H9.33097ZM20.3282 9.47968C20.4707 9.6162 20.5595 9.80843 20.5595 10.0214C20.5595 10.2365 20.4689 10.4304 20.3239 10.5672L17.4104 13.4687C17.1169 13.761 16.642 13.76 16.3498 13.4665C16.084 13.1997 16.0607 12.783 16.2791 12.4898L16.3519 12.4059L17.992 10.7714H7.76847C7.35426 10.7714 7.01847 10.4356 7.01847 10.0214C7.01847 9.64169 7.30063 9.32789 7.6667 9.27823L7.76847 9.27138H17.9937L16.352 7.63779C16.0852 7.37212 16.06 6.95551 16.2772 6.66142L16.3497 6.57714C16.6153 6.31028 17.0319 6.28514 17.326 6.50234L17.4103 6.57478L20.3282 9.47968Z"/>
</svg>
