<svg  >

 <g>
  <title>Layer 1</title>
  <path id="svg_1" d="m5.5024,24.9872c-1.5249,0 -2.7628,1.2361 -2.7628,2.7539c0,1.52 1.2402,2.7538 2.7628,2.7538c1.5226,0 2.7628,-1.2361 2.7628,-2.7538c0.0023,-1.5178 -1.2379,-2.7539 -2.7628,-2.7539zm0,7.0369c-2.37,0 -4.2969,-1.9206 -4.2969,-4.283c0,-2.3625 1.9269,-4.2831 4.2969,-4.2831c2.3701,0 4.2969,1.9206 4.2969,4.2831c0.0023,2.3624 -1.9268,4.283 -4.2969,4.283z"/>
  <path id="svg_2" d="m19.6218,1.5292c-1.5226,0 -2.7628,1.2361 -2.7628,2.7538c0,1.52 1.2402,2.7539 2.7628,2.7539c1.5226,0 2.7628,-1.2361 2.7628,-2.7539c0,-1.5177 -1.2379,-2.7538 -2.7628,-2.7538zm0,7.0369c-2.3701,0 -4.2969,-1.9206 -4.2969,-4.2831c0,-2.3624 1.9268,-4.283 4.2969,-4.283c2.3701,0 4.2969,1.9206 4.2969,4.283c0.0023,2.3625 -1.9268,4.2831 -4.2969,4.2831z"/>
  <path id="svg_3" d="m12.2797,1.5773c-6.0285,0.4738 -10.7456,4.3997 -10.7456,9.1566c0,2.3555 1.162,4.5989 3.2726,6.3158l5.7046,4.695c1.7914,1.4903 2.8179,3.6741 2.8179,5.9953c0,0.9271 -0.1653,1.8451 -0.4845,2.7058c6.0261,-0.4738 10.7456,-4.3997 10.7456,-9.1566c0,-2.3533 -1.1621,-4.5966 -3.2703,-6.3135l-5.6634,-4.6607c-1.8188,-1.488 -2.8638,-3.6879 -2.8638,-6.0342c0.0023,-0.9249 0.1677,-1.8428 0.4869,-2.7035zm-0.6614,30.4457l-1.3297,0l0.666,-1.1468c0.5512,-0.9477 0.8405,-2.0328 0.8405,-3.1362c0,-1.8656 -0.8244,-3.6214 -2.2644,-4.8186l-5.6978,-4.6905c-2.4711,-2.0099 -3.8329,-4.6745 -3.8329,-7.497c0,-5.9175 6.0606,-10.7339 13.5061,-10.7339l1.3297,0l-0.666,1.1469c-0.5512,0.95 -0.8429,2.0351 -0.8429,3.1361c0,1.8863 0.8406,3.6535 2.3058,4.8531l5.661,4.6584c2.4688,2.0099 3.8307,4.6722 3.8307,7.4947c0,5.9197 -6.0583,10.7338 -13.5061,10.7338z"/>
  <path id="svg_4" d="m44.4178,12.7353c-0.2021,-0.2427 -0.4616,-0.4304 -0.7831,-0.5654c-0.3215,-0.1351 -0.6752,-0.2587 -1.0633,-0.3686c-0.3881,-0.1099 -0.7762,-0.2312 -1.1667,-0.364c-0.3881,-0.1327 -0.744,-0.2953 -1.0633,-0.4853c-0.3215,-0.1923 -0.581,-0.4624 -0.7831,-0.8126c-0.2021,-0.3503 -0.3031,-0.7669 -0.3031,-1.2522c0,-0.7554 0.2962,-1.3987 0.891,-1.9297c0.5948,-0.5288 1.3757,-0.7944 2.3448,-0.7944c0.3652,0 0.712,0.0458 1.0427,0.1374c0.3307,0.0915 0.6063,0.1991 0.8244,0.3227c0.2205,0.1237 0.418,0.2473 0.5902,0.3709c0.1723,0.1236 0.2963,0.2289 0.3721,0.3182l0.1194,0.1396l-0.7234,0.7211c-0.0184,-0.0275 -0.0459,-0.0641 -0.085,-0.1076c-0.0367,-0.0435 -0.1263,-0.1236 -0.2664,-0.2381c-0.1401,-0.1144 -0.2893,-0.2174 -0.4455,-0.309c-0.1562,-0.0916 -0.3652,-0.1717 -0.6247,-0.2449c-0.2595,-0.0733 -0.5282,-0.1076 -0.8038,-0.1076c-0.6591,0 -1.185,0.1671 -1.5754,0.5036c-0.3904,0.3365 -0.5856,0.7417 -0.5856,1.2178c0,0.3457 0.101,0.6387 0.3008,0.8813c0.2021,0.2427 0.4639,0.4304 0.7877,0.5655c0.3238,0.135 0.6798,0.2586 1.0679,0.3685c0.3881,0.1099 0.7763,0.2312 1.1621,0.364c0.3858,0.1328 0.7418,0.2953 1.0633,0.4853c0.3238,0.1923 0.5856,0.4601 0.7877,0.8081c0.2021,0.3479 0.3009,0.7668 0.3009,1.2567c0,0.8493 -0.2986,1.5383 -0.898,2.0694c-0.5994,0.5311 -1.4284,0.7943 -2.4849,0.7943c-0.4317,0 -0.8405,-0.0526 -1.2286,-0.1579c-0.3882,-0.1053 -0.7074,-0.2289 -0.9554,-0.3708c-0.248,-0.142 -0.4685,-0.2885 -0.6614,-0.4373c-0.1929,-0.1488 -0.3261,-0.2747 -0.3996,-0.3777l-0.1332,-0.1602l0.6614,-0.728c0.0184,0.0275 0.0528,0.071 0.101,0.1305c0.0483,0.0572 0.1562,0.158 0.3193,0.2999c0.163,0.1419 0.3399,0.2655 0.5305,0.3708c0.1883,0.1053 0.4455,0.2015 0.7693,0.293c0.3238,0.0916 0.6545,0.1374 0.9967,0.1374c0.7395,0 1.3091,-0.1717 1.7064,-0.5151c0.3973,-0.3433 0.5971,-0.792 0.5971,-1.3483c0,-0.3434 -0.1011,-0.6387 -0.3032,-0.8813z"/>
  <path id="svg_5" d="m57.7148,14.5826c0.5902,-0.5974 0.8842,-1.3254 0.8842,-2.1838l0,-6.096l1.0817,0l0,6.096c0,1.1102 -0.4042,2.0694 -1.2149,2.8729c-0.8107,0.8058 -1.7706,1.2087 -2.8822,1.2087c-1.1115,0 -2.0738,-0.4029 -2.8822,-1.211c-0.8107,-0.8081 -1.2149,-1.7649 -1.2149,-2.8706l0,-6.096l1.0748,0l0,6.096c0,0.8584 0.2963,1.5864 0.8842,2.1838c0.5902,0.5975 1.3022,0.8951 2.1335,0.8951c0.8337,0.0023 1.5456,-0.2976 2.1358,-0.8951z"/>
  <path id="svg_6" d="m70.6652,12.7353c-0.2021,-0.2427 -0.4616,-0.4304 -0.7831,-0.5654c-0.3215,-0.1351 -0.6752,-0.2587 -1.0633,-0.3686c-0.3882,-0.1099 -0.7763,-0.2312 -1.1667,-0.364c-0.3881,-0.1327 -0.7418,-0.2953 -1.0633,-0.4853c-0.3215,-0.1923 -0.581,-0.4624 -0.7831,-0.8126c-0.2021,-0.3503 -0.3032,-0.7669 -0.3032,-1.2522c0,-0.7554 0.2963,-1.3987 0.8911,-1.9297c0.5948,-0.5288 1.3756,-0.7944 2.3448,-0.7944c0.3651,0 0.7119,0.0458 1.0426,0.1374c0.3307,0.0915 0.6063,0.1991 0.8245,0.3227c0.2205,0.1237 0.4157,0.2473 0.5902,0.3709c0.1723,0.1236 0.2963,0.2289 0.3721,0.3182l0.1194,0.1396l-0.7234,0.7211c-0.0184,-0.0275 -0.0483,-0.0641 -0.085,-0.1076c-0.0368,-0.0435 -0.1263,-0.1236 -0.2664,-0.2381c-0.1401,-0.1144 -0.2894,-0.2174 -0.4455,-0.309c-0.1562,-0.0916 -0.3652,-0.1717 -0.6247,-0.2449c-0.2595,-0.0733 -0.5282,-0.1076 -0.8038,-0.1076c-0.6591,0 -1.185,0.1671 -1.5778,0.5036c-0.3904,0.3365 -0.5856,0.7417 -0.5856,1.2178c0,0.3457 0.1011,0.6387 0.3009,0.8813c0.2021,0.2427 0.4639,0.4304 0.7854,0.5655c0.3238,0.135 0.6798,0.2586 1.0679,0.3685c0.3881,0.1099 0.7762,0.2312 1.1621,0.364c0.3858,0.1328 0.7418,0.2953 1.0633,0.4853c0.3238,0.1923 0.5856,0.4601 0.7877,0.8081c0.2021,0.3479 0.3008,0.7668 0.3008,1.2567c0,0.8493 -0.2985,1.5383 -0.8979,2.0694c-0.5994,0.5288 -1.4285,0.7943 -2.4872,0.7943c-0.4317,0 -0.8405,-0.0526 -1.2287,-0.1579c-0.3881,-0.1053 -0.7073,-0.2289 -0.9553,-0.3708c-0.2481,-0.142 -0.4685,-0.2885 -0.6614,-0.4373c-0.1929,-0.1488 -0.3262,-0.2747 -0.3996,-0.3777l-0.1332,-0.1602l0.6591,-0.728c0.0183,0.0275 0.0528,0.071 0.101,0.1305c0.0482,0.0572 0.1562,0.158 0.3192,0.2999c0.1631,0.1419 0.3399,0.2655 0.5306,0.3708c0.1906,0.1053 0.4455,0.2015 0.7693,0.293c0.3238,0.0916 0.6545,0.1374 0.9967,0.1374c0.7395,0 1.3091,-0.1717 1.7064,-0.5151c0.3973,-0.3433 0.5971,-0.792 0.5971,-1.3483c0.0092,-0.3434 -0.0919,-0.6387 -0.294,-0.8813z"/>
  <path id="svg_7" d="m77.8742,6.3028l1.0817,0l0,4.4455l5.6033,0l0,-4.4455l1.082,0l0,10.0379l-1.082,0l0,-4.5852l-5.6033,0l0,4.5852l-1.0817,0l0,-10.0379z"/>
  <path id="svg_8" d="m92.2572,6.3028l1.082,0l0,10.0379l-1.082,0l0,-10.0379z"/>
  <path id="svg_9" d="m47.2241,23.9047c-0.1562,-0.0939 -0.3468,-0.174 -0.5718,-0.2358c-0.2251,-0.0641 -0.4479,-0.1373 -0.6706,-0.2243c-0.2228,-0.0847 -0.4134,-0.2267 -0.5696,-0.4235c-0.1561,-0.1969 -0.2365,-0.4464 -0.2365,-0.7486c0,-0.3731 0.1493,-0.6913 0.4501,-0.9546c0.3009,-0.2632 0.689,-0.396 1.169,-0.396c0.1883,0 0.372,0.0229 0.5488,0.0664c0.1769,0.0435 0.3216,0.0961 0.4341,0.1534c0.1125,0.0595 0.2113,0.119 0.2962,0.1808c0.085,0.0618 0.1447,0.1145 0.1815,0.1603l0.0574,0.0641l-0.5925,0.6272c-0.0253,-0.0298 -0.062,-0.0664 -0.108,-0.1099c-0.0459,-0.0435 -0.1447,-0.103 -0.2916,-0.1763c-0.1493,-0.0732 -0.3009,-0.1098 -0.457,-0.1098c-0.1884,0 -0.3422,0.048 -0.4571,0.1442c-0.1148,0.0961 -0.1722,0.2129 -0.1722,0.3502c0,0.1534 0.0781,0.277 0.2342,0.3709c0.1562,0.0938 0.3445,0.1716 0.5673,0.2357c0.2228,0.0641 0.4455,0.1397 0.6706,0.2244c0.2251,0.087 0.4157,0.2266 0.5718,0.4258c0.1562,0.1968 0.2366,0.4463 0.2366,0.7485c0,0.4281 -0.1562,0.776 -0.4662,1.0462c-0.3101,0.2701 -0.7395,0.4051 -1.2861,0.4051c-0.2159,0 -0.4226,-0.0251 -0.6247,-0.0778c-0.2021,-0.0526 -0.3674,-0.1144 -0.496,-0.1877c-0.1309,-0.0733 -0.2458,-0.1465 -0.3445,-0.222c-0.0988,-0.0756 -0.1699,-0.1374 -0.2136,-0.19l-0.0735,-0.0802l0.5971,-0.5929c0.0299,0.0344 0.0735,0.0802 0.1286,0.1328c0.0552,0.0549 0.1769,0.1282 0.3652,0.2198c0.1883,0.0915 0.3881,0.1396 0.5948,0.1396c0.2388,0 0.4249,-0.0549 0.5604,-0.1671c0.1332,-0.1122 0.2021,-0.2541 0.2021,-0.4258c0,-0.1534 -0.0781,-0.2793 -0.2343,-0.3731z"/>
  <path id="svg_10" d="m55.8592,21.0176l0,0.8905l-1.3205,0l0,3.7199l-0.9898,0l0,-3.7199l-1.3229,0l0,-0.8905l3.6332,0z"/>
  <path id="svg_11" d="m62.7099,24.5246c0.1998,-0.2083 0.3008,-0.467 0.3008,-0.7737l0,-2.7333l0.9899,0l0,2.7333c0,0.5608 -0.1906,1.0324 -0.5742,1.4101c-0.3835,0.3777 -0.8635,0.5677 -1.4399,0.5677c-0.5765,0 -1.0564,-0.1877 -1.44,-0.5677c-0.3835,-0.3777 -0.5741,-0.8493 -0.5741,-1.4101l0,-2.7333l0.9898,0l0,2.7333c0,0.3067 0.1011,0.5631 0.3009,0.7737c0.2021,0.2083 0.4432,0.3136 0.7234,0.3136c0.2825,0 0.5236,-0.1053 0.7234,-0.3136z"/>
  <path id="svg_12" d="m70.2931,21.0176c0.6729,0 1.2378,0.2221 1.6948,0.6684c0.4571,0.4464 0.6844,0.9913 0.6844,1.6368c0,0.6455 -0.2273,1.1904 -0.6844,1.6367c-0.457,0.4464 -1.0219,0.6685 -1.6948,0.6685l-1.7201,0l0,-4.6104l1.7201,0zm-0.7257,0.8905l0,2.834l0.7257,0c0.3835,0 0.7096,-0.1374 0.9806,-0.4121c0.271,-0.2747 0.4065,-0.6089 0.4065,-1.0049c0,-0.396 -0.1332,-0.7303 -0.3973,-1.005c-0.2641,-0.2747 -0.5948,-0.412 -0.9898,-0.412l-0.7257,0z"/>
  <path id="svg_13" d="m77.0129,21.0176l0.9944,0l0,4.6104l-0.9944,0l0,-4.6104z"/>
  <path id="svg_14" d="m83.0713,21.624c0.4845,-0.4692 1.0793,-0.705 1.7839,-0.705c0.706,0 1.3,0.2358 1.785,0.705c0.484,0.4693 0.728,1.0347 0.728,1.6986c0,0.6616 -0.241,1.2293 -0.728,1.6986c-0.485,0.4692 -1.079,0.705 -1.785,0.705c-0.7046,0 -1.2994,-0.2358 -1.7839,-0.705c-0.4846,-0.4716 -0.7281,-1.037 -0.7281,-1.6986c0,-0.6616 0.2435,-1.2293 0.7281,-1.6986zm0.7303,2.7768c0.2893,0.2907 0.6386,0.4372 1.0536,0.4372c0.414,0 0.765,-0.1465 1.055,-0.4372c0.287,-0.2907 0.431,-0.6501 0.431,-1.0759c0,-0.4258 -0.144,-0.7852 -0.431,-1.0782c-0.287,-0.293 -0.639,-0.4395 -1.055,-0.4395c-0.413,0 -0.7643,0.1465 -1.0536,0.4395c-0.2871,0.293 -0.4318,0.6524 -0.4318,1.0782c0,0.4258 0.1447,0.7829 0.4318,1.0759z"/>
 </g>
</svg>
