<svg viewBox="0 0 20 24" fill="none" >
    <path
            fill-rule="evenodd"
            clip-rule="evenodd"
            d="M1.79141 7.98988C1.79141 4.44905 5.29389 1.52675 9.77002 1.17403C9.533 1.81472 9.41023 2.49801 9.40852 3.18641C9.40852 4.93297 10.1844 6.57048 11.5349 7.67806L15.7399 11.1473C17.3053 12.4253 18.1681 14.0952 18.1681 15.8469C18.1681 19.3877 14.6639 22.31 10.1895 22.6627C10.4265 22.022 10.5493 21.3387 10.5493 20.6486C10.5493 18.9208 9.78708 17.2952 8.45702 16.1859L4.22132 12.6911C2.65424 11.4131 1.79141 9.74326 1.79141 7.98988ZM8.29162 23.8367H9.27893C14.8089 23.8367 19.3072 20.2533 19.3072 15.8469C19.3072 13.7459 18.296 11.7642 16.4629 10.2681L12.2596 6.80052C11.1717 5.90764 10.5476 4.59218 10.5476 3.18811C10.5476 2.36851 10.7642 1.56083 11.1734 0.853685L11.6679 0H10.6806C5.15235 0 0.652344 3.58514 0.652344 7.98988C0.652344 10.0909 1.66352 12.0743 3.49831 13.5704L7.7289 17.0618C8.79806 17.9529 9.41023 19.2599 9.41023 20.6486C9.41023 21.4699 9.19537 22.2776 8.78613 22.983L8.29162 23.8367ZM15.1612 1.11005C14.0595 1.11005 13.1621 2.0074 13.1621 3.10914C13.1621 4.21254 14.0595 5.10823 15.1612 5.10823C16.263 5.10823 17.1603 4.21088 17.1603 3.10914C17.1603 2.0074 16.2646 1.11005 15.1612 1.11005ZM15.1612 6.21828C13.4463 6.21828 12.0521 4.82407 12.0521 3.10914C12.0521 1.39421 13.4463 0 15.1612 0C16.8761 0 18.2703 1.39421 18.2703 3.10914C18.272 4.82407 16.8761 6.21828 15.1612 6.21828ZM4.7977 18.7284C3.6943 18.7284 2.79861 19.6257 2.79861 20.7275C2.79861 21.8309 3.69596 22.7266 4.7977 22.7266C5.89944 22.7266 6.79679 21.8292 6.79679 20.7275C6.79845 19.6257 5.90111 18.7284 4.7977 18.7284ZM4.7977 23.8366C3.08277 23.8366 1.68856 22.4424 1.68856 20.7275C1.68856 19.0126 3.08277 17.6183 4.7977 17.6183C6.51263 17.6183 7.90684 19.0126 7.90684 20.7275C7.9085 22.4424 6.51263 23.8366 4.7977 23.8366Z"
            fill="white"
    />
</svg>
