<svg width="16" height="4" viewBox="0 0 16 4" fill="none" >
    <path d="M14 3.5C13.1716 3.5 12.5 2.82843 12.5 2C12.5 1.17157 13.1716 0.5 14 0.5C14.8284 0.5 15.5 1.17157 15.5 2C15.5 2.39782 15.342 2.77936 15.0607 3.06066C14.7794 3.34196 14.3978 3.5 14 3.5ZM8 3.5C7.17157 3.5 6.5 2.82843 6.5 2C6.5 1.17157 7.17157 0.5 8 0.5C8.82843 0.5 9.5 1.17157 9.5 2C9.5 2.39782 9.34196 2.77936 9.06066 3.06066C8.77936 3.34196 8.39782 3.5 8 3.5ZM2 3.5C1.17157 3.5 0.5 2.82843 0.5 2C0.5 1.17157 1.17157 0.5 2 0.5C2.82843 0.5 3.5 1.17157 3.5 2C3.5 2.39782 3.34196 2.77936 3.06066 3.06066C2.77936 3.34196 2.39782 3.5 2 3.5Z" fill="white" stroke="#ADAFBB"/>
</svg>
