<svg viewBox="0 0 18 18" focusable="false"><path d="M12.717 9.764a1.76 1.76 0 00-1.76 1.757c0 .97.788 1.757 1.76 1.757H18V9.764h-5.283zm0 2.343a.586.586 0 110-1.173.586.586 0 010 1.173z"></path><path d="M12.717 8.592h2.935V6.834c0-.969-.79-1.757-1.76-1.757H.586A.587.587 0 000 5.663v11.716c0 .323.263.586.587.586h13.304c.971 0 1.761-.788 1.761-1.758V14.45h-2.935a2.935 2.935 0 01-2.934-2.929 2.935 2.935 0 012.934-2.93zm3.522-3.515h-.005c.37.49.592 1.098.592 1.757v1.758H18V6.834c0-.969-.79-1.757-1.76-1.757zm.587 9.373v1.757c0 .66-.222 1.268-.592 1.758h.005c.971 0 1.761-.788 1.761-1.758V14.45h-1.174zM9.611.172a.588.588 0 00-.83 0l-.516.515 3.225 3.218h1.862L9.61.172zm-3.522 0a.588.588 0 00-.83 0L1.518 3.905H9.83L6.089.172z"></path></svg>
